<svg width="105" height="54" viewBox="0 0 105 54" fill="none" xmlns="http://www.w3.org/2000/svg">
<circle cx="27" cy="27" r="27" fill="url(#paint0_linear_1_9)"/>
<path d="M44.62 27.164L42.282 31H39.93L42.772 26.604C42.5013 26.492 42.2307 26.3287 41.96 26.114C41.6893 25.89 41.4653 25.596 41.288 25.232C41.1107 24.8587 41.022 24.4013 41.022 23.86C41.022 22.936 41.3533 22.2313 42.016 21.746C42.6787 21.2513 43.6073 21.004 44.802 21.004H48.05V31H45.936V27.164H44.62ZM44.886 22.74C44.522 22.74 44.2093 22.782 43.948 22.866C43.696 22.95 43.5 23.0853 43.36 23.272C43.2293 23.4587 43.164 23.706 43.164 24.014C43.164 24.4527 43.3087 24.8027 43.598 25.064C43.8967 25.316 44.3447 25.442 44.942 25.442H45.936V22.74H44.886Z" fill="white"/>
<path d="M67.1465 21.004V29.236H68.4765V33.912H66.4325V31H60.1745V33.912H58.1305V29.236H58.9005C59.1619 28.7133 59.4139 28.1627 59.6565 27.584C59.8992 27.0053 60.1232 26.3847 60.3285 25.722C60.5432 25.0593 60.7345 24.3407 60.9025 23.566C61.0705 22.782 61.2105 21.928 61.3225 21.004H67.1465ZM63.0025 22.768C62.9372 23.2533 62.8439 23.7713 62.7225 24.322C62.6012 24.8633 62.4565 25.4187 62.2885 25.988C62.1299 26.5573 61.9525 27.1173 61.7565 27.668C61.5605 28.2187 61.3505 28.7413 61.1265 29.236H65.0325V22.768H63.0025ZM84.516 31H78.762V21.004H84.516V22.74H80.876V24.938H84.264V26.674H80.876V29.25H84.516V31ZM103.536 31H101.422V26.688H97.4599V31H95.3459V21.004H97.4599V24.924H101.422V21.004H103.536V31Z" fill="#4DAAEA"/>
<defs>
<linearGradient id="paint0_linear_1_9" x1="-18.5" y1="-8.5" x2="52" y2="54" gradientUnits="userSpaceOnUse">
<stop offset="0.125" stop-color="#359CE2" stop-opacity="0"/>
<stop offset="0.567708" stop-color="#4DAAEA"/>
</linearGradient>
</defs>
</svg>
